<svg aria-roledescription="class" role="graphics-document document" viewBox="0 0 2225.032958984375 1551.800048828125" style="max-width: 2225.032958984375px;" class="classDiagram" xmlns="http://www.w3.org/2000/svg" width="100%" id="mermaidSvgId"><style>#mermaidSvgId{font-family:"trebuchet ms",verdana,arial,sans-serif;font-size:16px;fill:#000000;}#mermaidSvgId .error-icon{fill:#552222;}#mermaidSvgId .error-text{fill:#552222;stroke:#552222;}#mermaidSvgId .edge-thickness-normal{stroke-width:1px;}#mermaidSvgId .edge-thickness-thick{stroke-width:3.5px;}#mermaidSvgId .edge-pattern-solid{stroke-dasharray:0;}#mermaidSvgId .edge-thickness-invisible{stroke-width:0;fill:none;}#mermaidSvgId .edge-pattern-dashed{stroke-dasharray:3;}#mermaidSvgId .edge-pattern-dotted{stroke-dasharray:2;}#mermaidSvgId .marker{fill:#666;stroke:#666;}#mermaidSvgId .marker.cross{stroke:#666;}#mermaidSvgId svg{font-family:"trebuchet ms",verdana,arial,sans-serif;font-size:16px;}#mermaidSvgId p{margin:0;}#mermaidSvgId g.classGroup text{fill:#999;stroke:none;font-family:"trebuchet ms",verdana,arial,sans-serif;font-size:10px;}#mermaidSvgId g.classGroup text .title{font-weight:bolder;}#mermaidSvgId .nodeLabel,#mermaidSvgId .edgeLabel{color:#111111;}#mermaidSvgId .edgeLabel .label rect{fill:#eee;}#mermaidSvgId .label text{fill:#111111;}#mermaidSvgId .labelBkg{background:#eee;}#mermaidSvgId .edgeLabel .label span{background:#eee;}#mermaidSvgId .classTitle{font-weight:bolder;}#mermaidSvgId .node rect,#mermaidSvgId .node circle,#mermaidSvgId .node ellipse,#mermaidSvgId .node polygon,#mermaidSvgId .node path{fill:#eee;stroke:#999;stroke-width:1px;}#mermaidSvgId .divider{stroke:#999;stroke-width:1;}#mermaidSvgId g.clickable{cursor:pointer;}#mermaidSvgId g.classGroup rect{fill:#eee;stroke:#999;}#mermaidSvgId g.classGroup line{stroke:#999;stroke-width:1;}#mermaidSvgId .classLabel .box{stroke:none;stroke-width:0;fill:#eee;opacity:0.5;}#mermaidSvgId .classLabel .label{fill:#999;font-size:10px;}#mermaidSvgId .relation{stroke:#666;stroke-width:1;fill:none;}#mermaidSvgId .dashed-line{stroke-dasharray:3;}#mermaidSvgId .dotted-line{stroke-dasharray:1 2;}#mermaidSvgId #compositionStart,#mermaidSvgId .composition{fill:#666!important;stroke:#666!important;stroke-width:1;}#mermaidSvgId #compositionEnd,#mermaidSvgId .composition{fill:#666!important;stroke:#666!important;stroke-width:1;}#mermaidSvgId #dependencyStart,#mermaidSvgId .dependency{fill:#666!important;stroke:#666!important;stroke-width:1;}#mermaidSvgId #dependencyStart,#mermaidSvgId .dependency{fill:#666!important;stroke:#666!important;stroke-width:1;}#mermaidSvgId #extensionStart,#mermaidSvgId .extension{fill:transparent!important;stroke:#666!important;stroke-width:1;}#mermaidSvgId #extensionEnd,#mermaidSvgId .extension{fill:transparent!important;stroke:#666!important;stroke-width:1;}#mermaidSvgId #aggregationStart,#mermaidSvgId .aggregation{fill:transparent!important;stroke:#666!important;stroke-width:1;}#mermaidSvgId #aggregationEnd,#mermaidSvgId .aggregation{fill:transparent!important;stroke:#666!important;stroke-width:1;}#mermaidSvgId #lollipopStart,#mermaidSvgId .lollipop{fill:#eee!important;stroke:#666!important;stroke-width:1;}#mermaidSvgId #lollipopEnd,#mermaidSvgId .lollipop{fill:#eee!important;stroke:#666!important;stroke-width:1;}#mermaidSvgId .edgeTerminals{font-size:11px;line-height:initial;}#mermaidSvgId .classTitleText{text-anchor:middle;font-size:18px;fill:#000000;}#mermaidSvgId :root{--mermaid-font-family:"trebuchet ms",verdana,arial,sans-serif;}</style><g><defs><marker orient="auto" markerHeight="240" markerWidth="190" refY="7" refX="18" class="marker aggregation class" id="mermaidSvgId_class-aggregationStart"><path d="M 18,7 L9,13 L1,7 L9,1 Z"></path></marker></defs><defs><marker orient="auto" markerHeight="28" markerWidth="20" refY="7" refX="1" class="marker aggregation class" id="mermaidSvgId_class-aggregationEnd"><path d="M 18,7 L9,13 L1,7 L9,1 Z"></path></marker></defs><defs><marker orient="auto" markerHeight="240" markerWidth="190" refY="7" refX="18" class="marker extension class" id="mermaidSvgId_class-extensionStart"><path d="M 1,7 L18,13 V 1 Z"></path></marker></defs><defs><marker orient="auto" markerHeight="28" markerWidth="20" refY="7" refX="1" class="marker extension class" id="mermaidSvgId_class-extensionEnd"><path d="M 1,1 V 13 L18,7 Z"></path></marker></defs><defs><marker orient="auto" markerHeight="240" markerWidth="190" refY="7" refX="18" class="marker composition class" id="mermaidSvgId_class-compositionStart"><path d="M 18,7 L9,13 L1,7 L9,1 Z"></path></marker></defs><defs><marker orient="auto" markerHeight="28" markerWidth="20" refY="7" refX="1" class="marker composition class" id="mermaidSvgId_class-compositionEnd"><path d="M 18,7 L9,13 L1,7 L9,1 Z"></path></marker></defs><defs><marker orient="auto" markerHeight="240" markerWidth="190" refY="7" refX="6" class="marker dependency class" id="mermaidSvgId_class-dependencyStart"><path d="M 5,7 L9,13 L1,7 L9,1 Z"></path></marker></defs><defs><marker orient="auto" markerHeight="28" markerWidth="20" refY="7" refX="13" class="marker dependency class" id="mermaidSvgId_class-dependencyEnd"><path d="M 18,7 L9,13 L14,7 L9,1 Z"></path></marker></defs><defs><marker orient="auto" markerHeight="240" markerWidth="190" refY="7" refX="13" class="marker lollipop class" id="mermaidSvgId_class-lollipopStart"><circle r="6" cy="7" cx="7" fill="transparent" stroke="black"></circle></marker></defs><defs><marker orient="auto" markerHeight="240" markerWidth="190" refY="7" refX="1" class="marker lollipop class" id="mermaidSvgId_class-lollipopEnd"><circle r="6" cy="7" cx="7" fill="transparent" stroke="black"></circle></marker></defs><g class="root"><g class="clusters"></g><g class="edgePaths"><path marker-end="url(#mermaidSvgId_class-dependencyEnd)" style=";" class="edge-thickness-normal edge-pattern-solid relation" id="id_ParkingLotUI_VehicleFactory_1" d="M659.53,346.726L590.414,369.138C521.299,391.551,383.068,436.375,313.953,481.188C244.837,526,244.837,570.8,244.837,615.6C244.837,660.4,244.837,705.2,244.837,746.067C244.837,786.933,244.837,823.867,244.837,842.333L244.837,860.8"></path><path marker-end="url(#mermaidSvgId_class-dependencyEnd)" style=";" class="edge-thickness-normal edge-pattern-solid relation" id="id_ParkingLot_Vehicle_2" d="M1080.055,971.348L998.464,992.523C916.872,1013.698,753.69,1056.049,633.879,1094.622C514.068,1133.196,437.63,1167.991,399.41,1185.389L361.191,1202.787"></path><path marker-start="url(#mermaidSvgId_class-extensionStart)" style=";" class="edge-thickness-normal edge-pattern-dashed relation" id="id_ParkingStrategy_DefaultParkingStrategy_3" d="M832.666,1335.8L832.666,1347.167C832.666,1358.533,832.666,1381.267,832.666,1399.833C832.666,1418.4,832.666,1432.8,832.666,1440L832.666,1447.2"></path><path marker-start="url(#mermaidSvgId_class-extensionStart)" style=";" class="edge-thickness-normal edge-pattern-dashed relation" id="id_VehicleValidator_DefaultVehicleValidator_4" d="M1261.721,1346.5L1261.721,1356.083C1261.721,1365.667,1261.721,1384.833,1261.721,1401.617C1261.721,1418.4,1261.721,1432.8,1261.721,1440L1261.721,1447.2"></path><path marker-start="url(#mermaidSvgId_class-extensionStart)" style=";" class="edge-thickness-normal edge-pattern-dashed relation" id="id_ParkingLotOperations_ParkingLot_5" d="M1261.721,743L1261.721,744.167C1261.721,745.333,1261.721,747.667,1261.721,753C1261.721,758.333,1261.721,766.667,1261.721,770.833L1261.721,775"></path><path marker-start="url(#mermaidSvgId_class-extensionStart)" style=";" class="edge-thickness-normal edge-pattern-dashed relation" id="id_FloorOperations_Floor_6" d="M2037.279,1019.5L2037.279,1032.65C2037.279,1045.8,2037.279,1072.1,2036.539,1096.55C2035.8,1121,2034.32,1143.6,2033.581,1154.9L2032.841,1166.2"></path><path marker-start="url(#mermaidSvgId_class-extensionStart)" style=";" class="edge-thickness-normal edge-pattern-dashed relation" id="id_ParkingSpotManager_ParkingSpot_7" d="M1653.092,1030.2L1653.092,1041.567C1653.092,1052.933,1653.092,1075.667,1652.69,1091.2C1652.289,1106.733,1651.485,1115.067,1651.084,1119.233L1650.682,1123.4"></path><path marker-start="url(#mermaidSvgId_class-extensionStart)" style=";" class="edge-thickness-normal edge-pattern-solid relation" id="id_Vehicle_Car_8" d="M182.073,1349.149L175.282,1358.291C168.491,1367.433,154.909,1385.716,148.117,1399.025C141.326,1412.333,141.326,1420.667,141.326,1424.833L141.326,1429"></path><path marker-start="url(#mermaidSvgId_class-extensionStart)" style=";" class="edge-thickness-normal edge-pattern-solid relation" id="id_Vehicle_Truck_9" d="M327.601,1349.149L334.392,1358.291C341.183,1367.433,354.766,1385.716,361.557,1399.025C368.348,1412.333,368.348,1420.667,368.348,1424.833L368.348,1429"></path><path marker-start="url(#mermaidSvgId_class-extensionStart)" style=";" class="edge-thickness-normal edge-pattern-solid relation" id="id_Vehicle_Bike_10" d="M372.167,1303.572L409.665,1320.31C447.164,1337.048,522.161,1370.524,559.659,1391.429C597.157,1412.333,597.157,1420.667,597.157,1424.833L597.157,1429"></path><path marker-end="url(#mermaidSvgId_class-dependencyEnd)" style=";" class="edge-thickness-normal edge-pattern-solid relation" id="id_VehicleFactory_Vehicle_11" d="M244.837,981.6L244.837,1001.067C244.837,1020.533,244.837,1059.467,245.528,1089.485C246.218,1119.504,247.599,1140.609,248.29,1151.161L248.981,1161.713"></path><path marker-end="url(#mermaidSvgId_class-dependencyEnd)" style=";" class="edge-thickness-normal edge-pattern-solid relation" id="id_ParkingLot_Floor_12" d="M1443.387,978.439L1510.353,998.432C1577.32,1018.426,1711.253,1058.413,1790.919,1089.064C1870.586,1119.714,1895.986,1141.029,1908.687,1151.686L1921.387,1162.343"></path><path marker-end="url(#mermaidSvgId_class-dependencyEnd)" style=";" class="edge-thickness-normal edge-pattern-solid relation" id="id_ParkingLot_ParkingSpot_13" d="M1431.581,1073.4L1436.324,1077.567C1441.068,1081.733,1450.555,1090.067,1461.137,1099.236C1471.719,1108.405,1483.395,1118.41,1489.233,1123.413L1495.072,1128.416"></path><path marker-end="url(#mermaidSvgId_class-dependencyEnd)" style=";" class="edge-thickness-normal edge-pattern-solid relation" id="id_ParkingLot_ParkingStrategy_14" d="M1080.055,997.958L1038.824,1014.698C997.592,1031.439,915.129,1064.919,873.898,1095.026C832.666,1125.133,832.666,1151.867,832.666,1165.233L832.666,1178.6"></path><path marker-end="url(#mermaidSvgId_class-dependencyEnd)" style=";" class="edge-thickness-normal edge-pattern-solid relation" id="id_ParkingLot_VehicleValidator_15" d="M1261.721,1073.4L1261.721,1077.567C1261.721,1081.733,1261.721,1090.067,1261.721,1105.817C1261.721,1121.567,1261.721,1144.733,1261.721,1156.317L1261.721,1167.9"></path><path marker-end="url(#mermaidSvgId_class-dependencyEnd)" style=";" class="edge-thickness-normal edge-pattern-solid relation" id="id_ParkingLotUI_ParkingLotOperations_16" d="M970.539,360.669L1019.07,380.758C1067.6,400.846,1164.66,441.023,1213.191,464.278C1261.721,487.533,1261.721,493.867,1261.721,497.033L1261.721,500.2"></path><path marker-end="url(#mermaidSvgId_class-dependencyEnd)" style=";" class="edge-thickness-normal edge-pattern-solid relation" id="id_Main_ParkingLotUI_17" d="M815.035,86.4L815.035,90.567C815.035,94.733,815.035,103.067,815.035,110.4C815.035,117.733,815.035,124.067,815.035,127.233L815.035,130.4"></path></g><g class="edgeLabels"><g><rect style="stroke: none" class="background"></rect></g><g><rect style="stroke: none" class="background"></rect></g><g><rect style="stroke: none" class="background"></rect></g><g><rect style="stroke: none" class="background"></rect></g><g><rect style="stroke: none" class="background"></rect></g><g><rect style="stroke: none" class="background"></rect></g><g><rect style="stroke: none" class="background"></rect></g><g><rect style="stroke: none" class="background"></rect></g><g><rect style="stroke: none" class="background"></rect></g><g><rect style="stroke: none" class="background"></rect></g><g><rect style="stroke: none" class="background"></rect></g><g><rect style="stroke: none" class="background"></rect></g><g><rect style="stroke: none" class="background"></rect></g><g><rect style="stroke: none" class="background"></rect></g><g><rect style="stroke: none" class="background"></rect></g><g><rect style="stroke: none" class="background"></rect></g><g><rect style="stroke: none" class="background"></rect></g><g class="edgeLabel"><g transform="translate(0, 0)" class="label"><text y="-10.1"><tspan dy="1.1em" y="-0.1em" x="0" class="text-outer-tspan"></tspan></text></g></g><g class="edgeLabel"><g transform="translate(0, 0)" class="label"><text y="-10.1"><tspan dy="1.1em" y="-0.1em" x="0" class="text-outer-tspan"></tspan></text></g></g><g class="edgeLabel"><g transform="translate(0, 0)" class="label"><text y="-10.1"><tspan dy="1.1em" y="-0.1em" x="0" class="text-outer-tspan"></tspan></text></g></g><g class="edgeLabel"><g transform="translate(0, 0)" class="label"><text y="-10.1"><tspan dy="1.1em" y="-0.1em" x="0" class="text-outer-tspan"></tspan></text></g></g><g class="edgeLabel"><g transform="translate(0, 0)" class="label"><text y="-10.1"><tspan dy="1.1em" y="-0.1em" x="0" class="text-outer-tspan"></tspan></text></g></g><g class="edgeLabel"><g transform="translate(0, 0)" class="label"><text y="-10.1"><tspan dy="1.1em" y="-0.1em" x="0" class="text-outer-tspan"></tspan></text></g></g><g class="edgeLabel"><g transform="translate(0, 0)" class="label"><text y="-10.1"><tspan dy="1.1em" y="-0.1em" x="0" class="text-outer-tspan"></tspan></text></g></g><g class="edgeLabel"><g transform="translate(0, 0)" class="label"><text y="-10.1"><tspan dy="1.1em" y="-0.1em" x="0" class="text-outer-tspan"></tspan></text></g></g><g class="edgeLabel"><g transform="translate(0, 0)" class="label"><text y="-10.1"><tspan dy="1.1em" y="-0.1em" x="0" class="text-outer-tspan"></tspan></text></g></g><g class="edgeLabel"><g transform="translate(0, 0)" class="label"><text y="-10.1"><tspan dy="1.1em" y="-0.1em" x="0" class="text-outer-tspan"></tspan></text></g></g><g class="edgeLabel"><g transform="translate(0, 0)" class="label"><text y="-10.1"><tspan dy="1.1em" y="-0.1em" x="0" class="text-outer-tspan"></tspan></text></g></g><g class="edgeLabel"><g transform="translate(0, 0)" class="label"><text y="-10.1"><tspan dy="1.1em" y="-0.1em" x="0" class="text-outer-tspan"></tspan></text></g></g><g class="edgeLabel"><g transform="translate(0, 0)" class="label"><text y="-10.1"><tspan dy="1.1em" y="-0.1em" x="0" class="text-outer-tspan"></tspan></text></g></g><g class="edgeLabel"><g transform="translate(0, 0)" class="label"><text y="-10.1"><tspan dy="1.1em" y="-0.1em" x="0" class="text-outer-tspan"></tspan></text></g></g><g class="edgeLabel"><g transform="translate(0, 0)" class="label"><text y="-10.1"><tspan dy="1.1em" y="-0.1em" x="0" class="text-outer-tspan"></tspan></text></g></g><g class="edgeLabel"><g transform="translate(0, 0)" class="label"><text y="-10.1"><tspan dy="1.1em" y="-0.1em" x="0" class="text-outer-tspan"></tspan></text></g></g><g class="edgeLabel"><g transform="translate(0, 0)" class="label"><text y="-10.1"><tspan dy="1.1em" y="-0.1em" x="0" class="text-outer-tspan"></tspan></text></g></g></g><g class="nodes"><g transform="translate(832.6660308837891, 1251.2000045776367)" id="classId-ParkingStrategy-10402" class="node default"><g class="basic label-container"><path style="" fill="#eee" stroke-width="0" stroke="none" d="M-191.1484375 -66.5999984741211 L191.1484375 -66.5999984741211 L191.1484375 66.5999984741211 L-191.1484375 66.5999984741211"></path><path style="" fill="none" stroke-width="1.3" stroke="#999" d="M-191.1484375 -66.5999984741211 C-107.51727873853 -66.5999984741211, -23.88611997705999 -66.5999984741211, 191.1484375 -66.5999984741211 M-191.1484375 -66.5999984741211 C-48.507923439276425 -66.5999984741211, 94.13259062144715 -66.5999984741211, 191.1484375 -66.5999984741211 M191.1484375 -66.5999984741211 C191.1484375 -17.556292765064434, 191.1484375 31.487412943992226, 191.1484375 66.5999984741211 M191.1484375 -66.5999984741211 C191.1484375 -29.82151489693625, 191.1484375 6.956968680248593, 191.1484375 66.5999984741211 M191.1484375 66.5999984741211 C44.59898982693659 66.5999984741211, -101.95045784612682 66.5999984741211, -191.1484375 66.5999984741211 M191.1484375 66.5999984741211 C80.6813178296973 66.5999984741211, -29.785801840605387 66.5999984741211, -191.1484375 66.5999984741211 M-191.1484375 66.5999984741211 C-191.1484375 24.372180973808206, -191.1484375 -17.855636526504682, -191.1484375 -66.5999984741211 M-191.1484375 66.5999984741211 C-191.1484375 26.9314766214761, -191.1484375 -12.737045231168892, -191.1484375 -66.5999984741211"></path></g><g transform="translate(-41.118751525878906, -46.599998474121094)" class="annotation-group text"><g transform="translate(0,-9.199999809265137)" style="" class="label"><g><rect style="stroke: none" class="background"></rect><text style="" y="-10.1"><tspan dy="1.1em" y="-0.1em" x="0" class="text-outer-tspan"><tspan font-weight="normal" class="text-inner-tspan" font-style="normal">«Interface»</tspan></tspan></text></g></g></g><g transform="translate(-58.384376525878906, -28.19999885559082)" class="label-group text"><g transform="translate(0,-9.199999809265137)" style="font-weight: bolder" class="label"><g><rect style="stroke: none" class="background"></rect><text style="" y="-10.1"><tspan font-weight="" dy="1.1em" y="-0.1em" x="0" class="text-outer-tspan"><tspan font-weight="" class="text-inner-tspan" font-style="normal">ParkingStrategy</tspan></tspan></text></g></g></g><g transform="translate(-179.1484375, 14.200000762939453)" class="members-group text"></g><g transform="translate(-179.1484375, 44.20000076293945)" class="methods-group text"><g transform="translate(0,-9.199999809265137)" style="" class="label"><g><rect style="stroke: none" class="background"></rect><text style="" y="-10.1"><tspan dy="1.1em" y="-0.1em" x="0" class="text-outer-tspan">+findSpot(List&lt;Floor&gt;, String vehicleType)</tspan></text></g></g></g><g style="" class="divider"><path style="" fill="none" stroke-width="1.3" stroke="#999" d="M-191.1484375 -5.799999237060547 C-53.58795497161486 -5.799999237060547, 83.97252755677027 -5.799999237060547, 191.1484375 -5.799999237060547 M-191.1484375 -5.799999237060547 C-104.19591120204191 -5.799999237060547, -17.243384904083825 -5.799999237060547, 191.1484375 -5.799999237060547"></path></g><g style="" class="divider"><path style="" fill="none" stroke-width="1.3" stroke="#999" d="M-191.1484375 18.200000762939453 C-70.80472928842276 18.200000762939453, 49.538978923154474 18.200000762939453, 191.1484375 18.200000762939453 M-191.1484375 18.200000762939453 C-83.12881563567194 18.200000762939453, 24.890806228656118 18.200000762939453, 191.1484375 18.200000762939453"></path></g></g><g transform="translate(1261.7211151123047, 615.599983215332)" id="classId-ParkingLotOperations-10403" class="node default"><g class="basic label-container"><path style="" fill="#eee" stroke-width="0" stroke="none" d="M-197.0124969482422 -109.39999389648438 L197.0124969482422 -109.39999389648438 L197.0124969482422 109.39999389648438 L-197.0124969482422 109.39999389648438"></path><path style="" fill="none" stroke-width="1.3" stroke="#999" d="M-197.0124969482422 -109.39999389648438 C-85.13717817767072 -109.39999389648438, 26.73814059290075 -109.39999389648438, 197.0124969482422 -109.39999389648438 M-197.0124969482422 -109.39999389648438 C-95.84989003002322 -109.39999389648438, 5.312716888195752 -109.39999389648438, 197.0124969482422 -109.39999389648438 M197.0124969482422 -109.39999389648438 C197.0124969482422 -32.51323460781316, 197.0124969482422 44.373524680858054, 197.0124969482422 109.39999389648438 M197.0124969482422 -109.39999389648438 C197.0124969482422 -53.79849102337183, 197.0124969482422 1.803011849740713, 197.0124969482422 109.39999389648438 M197.0124969482422 109.39999389648438 C90.29997352419011 109.39999389648438, -16.412549899861972 109.39999389648438, -197.0124969482422 109.39999389648438 M197.0124969482422 109.39999389648438 C109.68817387219647 109.39999389648438, 22.363850796150757 109.39999389648438, -197.0124969482422 109.39999389648438 M-197.0124969482422 109.39999389648438 C-197.0124969482422 38.155081620404445, -197.0124969482422 -33.089830655675485, -197.0124969482422 -109.39999389648438 M-197.0124969482422 109.39999389648438 C-197.0124969482422 42.48230407968225, -197.0124969482422 -24.435385737119873, -197.0124969482422 -109.39999389648438"></path></g><g transform="translate(-41.118751525878906, -89.39999389648438)" class="annotation-group text"><g transform="translate(0,-9.199999809265137)" style="" class="label"><g><rect style="stroke: none" class="background"></rect><text style="" y="-10.1"><tspan dy="1.1em" y="-0.1em" x="0" class="text-outer-tspan"><tspan font-weight="normal" class="text-inner-tspan" font-style="normal">«Interface»</tspan></tspan></text></g></g></g><g transform="translate(-80.3499984741211, -70.9999942779541)" class="label-group text"><g transform="translate(0,-9.199999809265137)" style="font-weight: bolder" class="label"><g><rect style="stroke: none" class="background"></rect><text style="" y="-10.1"><tspan font-weight="" dy="1.1em" y="-0.1em" x="0" class="text-outer-tspan"><tspan font-weight="" class="text-inner-tspan" font-style="normal">ParkingLotOperations</tspan></tspan></text></g></g></g><g transform="translate(-185.0124969482422, -28.599994659423828)" class="members-group text"></g><g transform="translate(-185.0124969482422, 1.4000053405761719)" class="methods-group text"><g transform="translate(0,-9.199999809265137)" style="" class="label"><g><rect style="stroke: none" class="background"></rect><text style="" y="-10.1"><tspan dy="1.1em" y="-0.1em" x="0" class="text-outer-tspan"><tspan font-weight="normal" class="text-inner-tspan" font-style="normal">+parkVehicle(Vehicle</tspan><tspan font-weight="normal" class="text-inner-tspan" font-style="normal"> vehicle)</tspan></tspan></text></g></g><g transform="translate(0,12.199999809265137)" style="" class="label"><g><rect style="stroke: none" class="background"></rect><text style="" y="-10.1"><tspan dy="1.1em" y="-0.1em" x="0" class="text-outer-tspan"><tspan font-weight="normal" class="text-inner-tspan" font-style="normal">+leaveVehicle(String</tspan><tspan font-weight="normal" class="text-inner-tspan" font-style="normal"> licensePlate)</tspan></tspan></text></g></g><g transform="translate(0,33.59999942779541)" style="" class="label"><g><rect style="stroke: none" class="background"></rect><text style="" y="-10.1"><tspan dy="1.1em" y="-0.1em" x="0" class="text-outer-tspan"><tspan font-weight="normal" class="text-inner-tspan" font-style="normal">+getAvailableSpots(int</tspan><tspan font-weight="normal" class="text-inner-tspan" font-style="normal"> floorNumber)</tspan></tspan></text></g></g><g transform="translate(0,54.999999046325684)" style="" class="label"><g><rect style="stroke: none" class="background"></rect><text style="" y="-10.1"><tspan dy="1.1em" y="-0.1em" x="0" class="text-outer-tspan"><tspan font-weight="normal" class="text-inner-tspan" font-style="normal">+isFull()</tspan></tspan></text></g></g><g transform="translate(0,76.39999866485596)" style="" class="label"><g><rect style="stroke: none" class="background"></rect><text style="" y="-10.1"><tspan dy="1.1em" y="-0.1em" x="0" class="text-outer-tspan"><tspan font-weight="normal" class="text-inner-tspan" font-style="normal">+getVehicleLocation(String</tspan><tspan font-weight="normal" class="text-inner-tspan" font-style="normal"> licensePlate)</tspan></tspan></text></g></g></g><g style="" class="divider"><path style="" fill="none" stroke-width="1.3" stroke="#999" d="M-197.0124969482422 -48.59999465942383 C-87.97083233167419 -48.59999465942383, 21.07083228489381 -48.59999465942383, 197.0124969482422 -48.59999465942383 M-197.0124969482422 -48.59999465942383 C-108.44144195849327 -48.59999465942383, -19.870386968744356 -48.59999465942383, 197.0124969482422 -48.59999465942383"></path></g><g style="" class="divider"><path style="" fill="none" stroke-width="1.3" stroke="#999" d="M-197.0124969482422 -24.599994659423828 C-42.23660051944731 -24.599994659423828, 112.53929590934757 -24.599994659423828, 197.0124969482422 -24.599994659423828 M-197.0124969482422 -24.599994659423828 C-54.73226137740966 -24.599994659423828, 87.54797419342287 -24.599994659423828, 197.0124969482422 -24.599994659423828"></path></g></g><g transform="translate(1261.7211151123047, 1251.2000045776367)" id="classId-VehicleValidator-10404" class="node default"><g class="basic label-container"><path style="" fill="#eee" stroke-width="0" stroke="none" d="M-187.90664672851562 -77.30000305175781 L187.90664672851562 -77.30000305175781 L187.90664672851562 77.30000305175781 L-187.90664672851562 77.30000305175781"></path><path style="" fill="none" stroke-width="1.3" stroke="#999" d="M-187.90664672851562 -77.30000305175781 C-37.762633633952646 -77.30000305175781, 112.38137946061033 -77.30000305175781, 187.90664672851562 -77.30000305175781 M-187.90664672851562 -77.30000305175781 C-49.81457433598041 -77.30000305175781, 88.2774980565548 -77.30000305175781, 187.90664672851562 -77.30000305175781 M187.90664672851562 -77.30000305175781 C187.90664672851562 -24.122111244417823, 187.90664672851562 29.055780562922166, 187.90664672851562 77.30000305175781 M187.90664672851562 -77.30000305175781 C187.90664672851562 -40.84253635906879, 187.90664672851562 -4.3850696663797635, 187.90664672851562 77.30000305175781 M187.90664672851562 77.30000305175781 C82.15714722885257 77.30000305175781, -23.592352270810494 77.30000305175781, -187.90664672851562 77.30000305175781 M187.90664672851562 77.30000305175781 C85.74139364392457 77.30000305175781, -16.42385944066649 77.30000305175781, -187.90664672851562 77.30000305175781 M-187.90664672851562 77.30000305175781 C-187.90664672851562 42.10952323254962, -187.90664672851562 6.919043413341427, -187.90664672851562 -77.30000305175781 M-187.90664672851562 77.30000305175781 C-187.90664672851562 40.88427110332393, -187.90664672851562 4.468539154890053, -187.90664672851562 -77.30000305175781"></path></g><g transform="translate(-41.118751525878906, -57.30000305175781)" class="annotation-group text"><g transform="translate(0,-9.199999809265137)" style="" class="label"><g><rect style="stroke: none" class="background"></rect><text style="" y="-10.1"><tspan dy="1.1em" y="-0.1em" x="0" class="text-outer-tspan"><tspan font-weight="normal" class="text-inner-tspan" font-style="normal">«Interface»</tspan></tspan></text></g></g></g><g transform="translate(-61.30078125, -38.90000343322754)" class="label-group text"><g transform="translate(0,-9.199999809265137)" style="font-weight: bolder" class="label"><g><rect style="stroke: none" class="background"></rect><text style="" y="-10.1"><tspan font-weight="" dy="1.1em" y="-0.1em" x="0" class="text-outer-tspan"><tspan font-weight="" class="text-inner-tspan" font-style="normal">VehicleValidator</tspan></tspan></text></g></g></g><g transform="translate(-175.90664672851562, 3.4999961853027344)" class="members-group text"></g><g transform="translate(-175.90664672851562, 33.499996185302734)" class="methods-group text"><g transform="translate(0,-9.199999809265137)" style="" class="label"><g><rect style="stroke: none" class="background"></rect><text style="" y="-10.1"><tspan dy="1.1em" y="-0.1em" x="0" class="text-outer-tspan"><tspan font-weight="normal" class="text-inner-tspan" font-style="normal">+isValidVehicleType(String</tspan><tspan font-weight="normal" class="text-inner-tspan" font-style="normal"> vehicleType)</tspan></tspan></text></g></g><g transform="translate(0,12.199999809265137)" style="" class="label"><g><rect style="stroke: none" class="background"></rect><text style="" y="-10.1"><tspan dy="1.1em" y="-0.1em" x="0" class="text-outer-tspan"><tspan font-weight="normal" class="text-inner-tspan" font-style="normal">+isValidLicensePlate(String</tspan><tspan font-weight="normal" class="text-inner-tspan" font-style="normal"> licensePlate)</tspan></tspan></text></g></g></g><g style="" class="divider"><path style="" fill="none" stroke-width="1.3" stroke="#999" d="M-187.90664672851562 -16.500003814697266 C-37.74686735823795 -16.500003814697266, 112.41291201203973 -16.500003814697266, 187.90664672851562 -16.500003814697266 M-187.90664672851562 -16.500003814697266 C-105.80614412563835 -16.500003814697266, -23.705641522761084 -16.500003814697266, 187.90664672851562 -16.500003814697266"></path></g><g style="" class="divider"><path style="" fill="none" stroke-width="1.3" stroke="#999" d="M-187.90664672851562 7.499996185302734 C-70.12936155882127 7.499996185302734, 47.64792361087308 7.499996185302734, 187.90664672851562 7.499996185302734 M-187.90664672851562 7.499996185302734 C-108.50057215193804 7.499996185302734, -29.094497575360464 7.499996185302734, 187.90664672851562 7.499996185302734"></path></g></g><g transform="translate(1653.0918350219727, 924.1999893188477)" id="classId-ParkingSpotManager-10405" class="node default"><g class="basic label-container"><path style="" fill="#eee" stroke-width="0" stroke="none" d="M-154.43243408203125 -88 L154.43243408203125 -88 L154.43243408203125 88 L-154.43243408203125 88"></path><path style="" fill="none" stroke-width="1.3" stroke="#999" d="M-154.43243408203125 -88 C-66.29983395860373 -88, 21.832766164823795 -88, 154.43243408203125 -88 M-154.43243408203125 -88 C-44.93197155370309 -88, 64.56849097462506 -88, 154.43243408203125 -88 M154.43243408203125 -88 C154.43243408203125 -37.853733508823716, 154.43243408203125 12.292532982352569, 154.43243408203125 88 M154.43243408203125 -88 C154.43243408203125 -31.746099459139977, 154.43243408203125 24.507801081720046, 154.43243408203125 88 M154.43243408203125 88 C66.38293609380356 88, -21.66656189442412 88, -154.43243408203125 88 M154.43243408203125 88 C91.01581560288348 88, 27.599197123735706 88, -154.43243408203125 88 M-154.43243408203125 88 C-154.43243408203125 42.75125911551162, -154.43243408203125 -2.497481768976755, -154.43243408203125 -88 M-154.43243408203125 88 C-154.43243408203125 43.933428247518364, -154.43243408203125 -0.13314350496327165, -154.43243408203125 -88"></path></g><g transform="translate(-41.118751525878906, -68)" class="annotation-group text"><g transform="translate(0,-9.199999809265137)" style="" class="label"><g><rect style="stroke: none" class="background"></rect><text style="" y="-10.1"><tspan dy="1.1em" y="-0.1em" x="0" class="text-outer-tspan"><tspan font-weight="normal" class="text-inner-tspan" font-style="normal">«Interface»</tspan></tspan></text></g></g></g><g transform="translate(-75.3773422241211, -49.60000038146973)" class="label-group text"><g transform="translate(0,-9.199999809265137)" style="font-weight: bolder" class="label"><g><rect style="stroke: none" class="background"></rect><text style="" y="-10.1"><tspan font-weight="" dy="1.1em" y="-0.1em" x="0" class="text-outer-tspan"><tspan font-weight="" class="text-inner-tspan" font-style="normal">ParkingSpotManager</tspan></tspan></text></g></g></g><g transform="translate(-142.43243408203125, -7.200000762939453)" class="members-group text"></g><g transform="translate(-142.43243408203125, 22.799999237060547)" class="methods-group text"><g transform="translate(0,-9.199999809265137)" style="" class="label"><g><rect style="stroke: none" class="background"></rect><text style="" y="-10.1"><tspan dy="1.1em" y="-0.1em" x="0" class="text-outer-tspan"><tspan font-weight="normal" class="text-inner-tspan" font-style="normal">+occupySpot(Vehicle</tspan><tspan font-weight="normal" class="text-inner-tspan" font-style="normal"> vehicle)</tspan></tspan></text></g></g><g transform="translate(0,12.199999809265137)" style="" class="label"><g><rect style="stroke: none" class="background"></rect><text style="" y="-10.1"><tspan dy="1.1em" y="-0.1em" x="0" class="text-outer-tspan"><tspan font-weight="normal" class="text-inner-tspan" font-style="normal">+vacateSpot()</tspan></tspan></text></g></g><g transform="translate(0,33.59999942779541)" style="" class="label"><g><rect style="stroke: none" class="background"></rect><text style="" y="-10.1"><tspan dy="1.1em" y="-0.1em" x="0" class="text-outer-tspan"><tspan font-weight="normal" class="text-inner-tspan" font-style="normal">+isOccupied()</tspan></tspan></text></g></g></g><g style="" class="divider"><path style="" fill="none" stroke-width="1.3" stroke="#999" d="M-154.43243408203125 -27.200000762939453 C-62.99927092974559 -27.200000762939453, 28.433892222540067 -27.200000762939453, 154.43243408203125 -27.200000762939453 M-154.43243408203125 -27.200000762939453 C-80.65248744735547 -27.200000762939453, -6.872540812679688 -27.200000762939453, 154.43243408203125 -27.200000762939453"></path></g><g style="" class="divider"><path style="" fill="none" stroke-width="1.3" stroke="#999" d="M-154.43243408203125 -3.200000762939453 C-53.91842029083003 -3.200000762939453, 46.595593500371194 -3.200000762939453, 154.43243408203125 -3.200000762939453 M-154.43243408203125 -3.200000762939453 C-64.99325735838286 -3.200000762939453, 24.445919365265524 -3.200000762939453, 154.43243408203125 -3.200000762939453"></path></g></g><g transform="translate(2037.2785720825195, 924.1999893188477)" id="classId-FloorOperations-10406" class="node default"><g class="basic label-container"><path style="" fill="#eee" stroke-width="0" stroke="none" d="M-179.75430297851562 -77.30000305175781 L179.75430297851562 -77.30000305175781 L179.75430297851562 77.30000305175781 L-179.75430297851562 77.30000305175781"></path><path style="" fill="none" stroke-width="1.3" stroke="#999" d="M-179.75430297851562 -77.30000305175781 C-72.1747037812502 -77.30000305175781, 35.40489541601522 -77.30000305175781, 179.75430297851562 -77.30000305175781 M-179.75430297851562 -77.30000305175781 C-59.08998993383743 -77.30000305175781, 61.574323110840766 -77.30000305175781, 179.75430297851562 -77.30000305175781 M179.75430297851562 -77.30000305175781 C179.75430297851562 -27.196999581303515, 179.75430297851562 22.90600388915078, 179.75430297851562 77.30000305175781 M179.75430297851562 -77.30000305175781 C179.75430297851562 -19.065329600321682, 179.75430297851562 39.16934385111445, 179.75430297851562 77.30000305175781 M179.75430297851562 77.30000305175781 C60.75919047738452 77.30000305175781, -58.23592202374658 77.30000305175781, -179.75430297851562 77.30000305175781 M179.75430297851562 77.30000305175781 C43.18129681043422 77.30000305175781, -93.39170935764719 77.30000305175781, -179.75430297851562 77.30000305175781 M-179.75430297851562 77.30000305175781 C-179.75430297851562 42.81954824979617, -179.75430297851562 8.339093447834529, -179.75430297851562 -77.30000305175781 M-179.75430297851562 77.30000305175781 C-179.75430297851562 42.75575344323681, -179.75430297851562 8.211503834715813, -179.75430297851562 -77.30000305175781"></path></g><g transform="translate(-41.118751525878906, -57.30000305175781)" class="annotation-group text"><g transform="translate(0,-9.199999809265137)" style="" class="label"><g><rect style="stroke: none" class="background"></rect><text style="" y="-10.1"><tspan dy="1.1em" y="-0.1em" x="0" class="text-outer-tspan"><tspan font-weight="normal" class="text-inner-tspan" font-style="normal">«Interface»</tspan></tspan></text></g></g></g><g transform="translate(-60.22109603881836, -38.90000343322754)" class="label-group text"><g transform="translate(0,-9.199999809265137)" style="font-weight: bolder" class="label"><g><rect style="stroke: none" class="background"></rect><text style="" y="-10.1"><tspan font-weight="" dy="1.1em" y="-0.1em" x="0" class="text-outer-tspan"><tspan font-weight="" class="text-inner-tspan" font-style="normal">FloorOperations</tspan></tspan></text></g></g></g><g transform="translate(-167.75430297851562, 3.4999961853027344)" class="members-group text"></g><g transform="translate(-167.75430297851562, 33.499996185302734)" class="methods-group text"><g transform="translate(0,-9.199999809265137)" style="" class="label"><g><rect style="stroke: none" class="background"></rect><text style="" y="-10.1"><tspan dy="1.1em" y="-0.1em" x="0" class="text-outer-tspan"><tspan font-weight="normal" class="text-inner-tspan" font-style="normal">+getAvailableSpots()</tspan></tspan></text></g></g><g transform="translate(0,12.199999809265137)" style="" class="label"><g><rect style="stroke: none" class="background"></rect><text style="" y="-10.1"><tspan dy="1.1em" y="-0.1em" x="0" class="text-outer-tspan"><tspan font-weight="normal" class="text-inner-tspan" font-style="normal">+findAvailableSpot(String</tspan><tspan font-weight="normal" class="text-inner-tspan" font-style="normal"> vehicleType)</tspan></tspan></text></g></g></g><g style="" class="divider"><path style="" fill="none" stroke-width="1.3" stroke="#999" d="M-179.75430297851562 -16.500003814697266 C-96.50884556476726 -16.500003814697266, -13.263388151018887 -16.500003814697266, 179.75430297851562 -16.500003814697266 M-179.75430297851562 -16.500003814697266 C-86.64002590252164 -16.500003814697266, 6.474251173472339 -16.500003814697266, 179.75430297851562 -16.500003814697266"></path></g><g style="" class="divider"><path style="" fill="none" stroke-width="1.3" stroke="#999" d="M-179.75430297851562 7.499996185302734 C-92.78769520582395 7.499996185302734, -5.821087433132277 7.499996185302734, 179.75430297851562 7.499996185302734 M-179.75430297851562 7.499996185302734 C-74.73936139087407 7.499996185302734, 30.275580196767493 7.499996185302734, 179.75430297851562 7.499996185302734"></path></g></g><g transform="translate(254.8371124267578, 1251.2000045776367)" id="classId-Vehicle-10407" class="node default"><g class="basic label-container"><path style="" fill="#eee" stroke-width="0" stroke="none" d="M-100.89297485351562 -83.49999237060547 L100.89297485351562 -83.49999237060547 L100.89297485351562 83.49999237060547 L-100.89297485351562 83.49999237060547"></path><path style="" fill="none" stroke-width="1.3" stroke="#999" d="M-100.89297485351562 -83.49999237060547 C-50.674430274272495 -83.49999237060547, -0.45588569502936593 -83.49999237060547, 100.89297485351562 -83.49999237060547 M-100.89297485351562 -83.49999237060547 C-45.5293720098754 -83.49999237060547, 9.83423083376482 -83.49999237060547, 100.89297485351562 -83.49999237060547 M100.89297485351562 -83.49999237060547 C100.89297485351562 -24.493351900919336, 100.89297485351562 34.5132885687668, 100.89297485351562 83.49999237060547 M100.89297485351562 -83.49999237060547 C100.89297485351562 -30.681960808306762, 100.89297485351562 22.136070753991945, 100.89297485351562 83.49999237060547 M100.89297485351562 83.49999237060547 C37.22587433502854 83.49999237060547, -26.44122618345854 83.49999237060547, -100.89297485351562 83.49999237060547 M100.89297485351562 83.49999237060547 C49.72006738084605 83.49999237060547, -1.452840091823532 83.49999237060547, -100.89297485351562 83.49999237060547 M-100.89297485351562 83.49999237060547 C-100.89297485351562 46.03728407734818, -100.89297485351562 8.574575784090896, -100.89297485351562 -83.49999237060547 M-100.89297485351562 83.49999237060547 C-100.89297485351562 23.25725771395384, -100.89297485351562 -36.98547694269779, -100.89297485351562 -83.49999237060547"></path></g><g transform="translate(-38.42499923706055, -63.49999237060547)" class="annotation-group text"><g transform="translate(0,-9.199999809265137)" style="" class="label"><g><rect style="stroke: none" class="background"></rect><text style="" y="-10.1"><tspan dy="1.1em" y="-0.1em" x="0" class="text-outer-tspan"><tspan font-weight="normal" class="text-inner-tspan" font-style="normal">«Abstract»</tspan></tspan></text></g></g></g><g transform="translate(-27.910938262939453, -45.099992752075195)" class="label-group text"><g transform="translate(0,-9.199999809265137)" style="font-weight: bolder" class="label"><g><rect style="stroke: none" class="background"></rect><text style="" y="-10.1"><tspan font-weight="" dy="1.1em" y="-0.1em" x="0" class="text-outer-tspan"><tspan font-weight="" class="text-inner-tspan" font-style="normal">Vehicle</tspan></tspan></text></g></g></g><g transform="translate(-88.89297485351562, -2.699993133544922)" class="members-group text"><g transform="translate(0,-9.199999809265137)" style="" class="label"><g><rect style="stroke: none" class="background"></rect><text style="" y="-10.1"><tspan dy="1.1em" y="-0.1em" x="0" class="text-outer-tspan"><tspan font-weight="normal" class="text-inner-tspan" font-style="normal">-String</tspan><tspan font-weight="normal" class="text-inner-tspan" font-style="normal"> licensePlate</tspan></tspan></text></g></g><g transform="translate(0,12.199999809265137)" style="" class="label"><g><rect style="stroke: none" class="background"></rect><text style="" y="-10.1"><tspan dy="1.1em" y="-0.1em" x="0" class="text-outer-tspan"><tspan font-weight="normal" class="text-inner-tspan" font-style="normal">-VehicleType</tspan><tspan font-weight="normal" class="text-inner-tspan" font-style="normal"> type</tspan></tspan></text></g></g></g><g transform="translate(-88.89297485351562, 61.100006103515625)" class="methods-group text"><g transform="translate(0,-9.199999809265137)" style="" class="label"><g><rect style="stroke: none" class="background"></rect><text style="" y="-10.1"><tspan dy="1.1em" y="-0.1em" x="0" class="text-outer-tspan"><tspan font-weight="normal" class="text-inner-tspan" font-style="normal">+getSpotsNeeded()</tspan></tspan></text></g></g></g><g style="" class="divider"><path style="" fill="none" stroke-width="1.3" stroke="#999" d="M-100.89297485351562 -22.699993133544922 C-50.531596531061346 -22.699993133544922, -0.17021820860706782 -22.699993133544922, 100.89297485351562 -22.699993133544922 M-100.89297485351562 -22.699993133544922 C-30.51527422663655 -22.699993133544922, 39.862426400242526 -22.699993133544922, 100.89297485351562 -22.699993133544922"></path></g><g style="" class="divider"><path style="" fill="none" stroke-width="1.3" stroke="#999" d="M-100.89297485351562 41.100006103515625 C-33.629435556191055 41.100006103515625, 33.634103741133515 41.100006103515625, 100.89297485351562 41.100006103515625 M-100.89297485351562 41.100006103515625 C-49.82824263107453 41.100006103515625, 1.2364895913665634 41.100006103515625, 100.89297485351562 41.100006103515625"></path></g></g><g transform="translate(141.326171875, 1486.4000091552734)" id="classId-Car-10408" class="node default"><g class="basic label-container"><path style="" fill="#eee" stroke-width="0" stroke="none" d="M-86.12187957763672 -57.400001525878906 L86.12187957763672 -57.400001525878906 L86.12187957763672 57.400001525878906 L-86.12187957763672 57.400001525878906"></path><path style="" fill="none" stroke-width="1.3" stroke="#999" d="M-86.12187957763672 -57.400001525878906 C-50.685607645020646 -57.400001525878906, -15.249335712404573 -57.400001525878906, 86.12187957763672 -57.400001525878906 M-86.12187957763672 -57.400001525878906 C-41.92392411333265 -57.400001525878906, 2.2740313509714127 -57.400001525878906, 86.12187957763672 -57.400001525878906 M86.12187957763672 -57.400001525878906 C86.12187957763672 -33.23878617691928, 86.12187957763672 -9.07757082795964, 86.12187957763672 57.400001525878906 M86.12187957763672 -57.400001525878906 C86.12187957763672 -26.337944938417525, 86.12187957763672 4.724111649043856, 86.12187957763672 57.400001525878906 M86.12187957763672 57.400001525878906 C36.03918182475279 57.400001525878906, -14.043515928131143 57.400001525878906, -86.12187957763672 57.400001525878906 M86.12187957763672 57.400001525878906 C29.950621965247002 57.400001525878906, -26.220635647142714 57.400001525878906, -86.12187957763672 57.400001525878906 M-86.12187957763672 57.400001525878906 C-86.12187957763672 31.240153803039743, -86.12187957763672 5.080306080200579, -86.12187957763672 -57.400001525878906 M-86.12187957763672 57.400001525878906 C-86.12187957763672 33.98684100597461, -86.12187957763672 10.573680486070309, -86.12187957763672 -57.400001525878906"></path></g><g transform="translate(0, -37.400001525878906)" class="annotation-group text"></g><g transform="translate(-12.756250381469727, -37.400001525878906)" class="label-group text"><g transform="translate(0,-9.199999809265137)" style="font-weight: bolder" class="label"><g><rect style="stroke: none" class="background"></rect><text style="" y="-10.1"><tspan font-weight="" dy="1.1em" y="-0.1em" x="0" class="text-outer-tspan"><tspan font-weight="" class="text-inner-tspan" font-style="normal">Car</tspan></tspan></text></g></g></g><g transform="translate(-74.12187957763672, 4.999998092651367)" class="members-group text"></g><g transform="translate(-74.12187957763672, 34.99999809265137)" class="methods-group text"><g transform="translate(0,-9.199999809265137)" style="" class="label"><g><rect style="stroke: none" class="background"></rect><text style="" y="-10.1"><tspan dy="1.1em" y="-0.1em" x="0" class="text-outer-tspan"><tspan font-weight="normal" class="text-inner-tspan" font-style="normal">+getSpotsNeeded()</tspan></tspan></text></g></g></g><g style="" class="divider"><path style="" fill="none" stroke-width="1.3" stroke="#999" d="M-86.12187957763672 -15.000001907348633 C-32.80709640893346 -15.000001907348633, 20.507686759769797 -15.000001907348633, 86.12187957763672 -15.000001907348633 M-86.12187957763672 -15.000001907348633 C-21.21679026642525 -15.000001907348633, 43.68829904478622 -15.000001907348633, 86.12187957763672 -15.000001907348633"></path></g><g style="" class="divider"><path style="" fill="none" stroke-width="1.3" stroke="#999" d="M-86.12187957763672 8.999998092651367 C-47.365423149891534 8.999998092651367, -8.608966722146349 8.999998092651367, 86.12187957763672 8.999998092651367 M-86.12187957763672 8.999998092651367 C-25.51509417784058 8.999998092651367, 35.09169122195556 8.999998092651367, 86.12187957763672 8.999998092651367"></path></g></g><g transform="translate(368.3480529785156, 1486.4000091552734)" id="classId-Truck-10409" class="node default"><g class="basic label-container"><path style="" fill="#eee" stroke-width="0" stroke="none" d="M-90.9000015258789 -57.400001525878906 L90.9000015258789 -57.400001525878906 L90.9000015258789 57.400001525878906 L-90.9000015258789 57.400001525878906"></path><path style="" fill="none" stroke-width="1.3" stroke="#999" d="M-90.9000015258789 -57.400001525878906 C-35.14225300701566 -57.400001525878906, 20.615495511847584 -57.400001525878906, 90.9000015258789 -57.400001525878906 M-90.9000015258789 -57.400001525878906 C-27.800596635861957 -57.400001525878906, 35.29880825415499 -57.400001525878906, 90.9000015258789 -57.400001525878906 M90.9000015258789 -57.400001525878906 C90.9000015258789 -21.726738816056447, 90.9000015258789 13.946523893766013, 90.9000015258789 57.400001525878906 M90.9000015258789 -57.400001525878906 C90.9000015258789 -15.015517231113698, 90.9000015258789 27.36896706365151, 90.9000015258789 57.400001525878906 M90.9000015258789 57.400001525878906 C45.75751097665445 57.400001525878906, 0.6150204274299966 57.400001525878906, -90.9000015258789 57.400001525878906 M90.9000015258789 57.400001525878906 C34.076611300637694 57.400001525878906, -22.746778924603518 57.400001525878906, -90.9000015258789 57.400001525878906 M-90.9000015258789 57.400001525878906 C-90.9000015258789 20.698765826744214, -90.9000015258789 -16.002469872390478, -90.9000015258789 -57.400001525878906 M-90.9000015258789 57.400001525878906 C-90.9000015258789 18.073432646491526, -90.9000015258789 -21.253136232895855, -90.9000015258789 -57.400001525878906"></path></g><g transform="translate(0, -37.400001525878906)" class="annotation-group text"></g><g transform="translate(-21.512500762939453, -37.400001525878906)" class="label-group text"><g transform="translate(0,-9.199999809265137)" style="font-weight: bolder" class="label"><g><rect style="stroke: none" class="background"></rect><text style="" y="-10.1"><tspan font-weight="" dy="1.1em" y="-0.1em" x="0" class="text-outer-tspan"><tspan font-weight="" class="text-inner-tspan" font-style="normal">Truck</tspan></tspan></text></g></g></g><g transform="translate(-78.9000015258789, 4.999998092651367)" class="members-group text"></g><g transform="translate(-78.9000015258789, 34.99999809265137)" class="methods-group text"><g transform="translate(0,-9.199999809265137)" style="" class="label"><g><rect style="stroke: none" class="background"></rect><text style="" y="-10.1"><tspan dy="1.1em" y="-0.1em" x="0" class="text-outer-tspan"><tspan font-weight="normal" class="text-inner-tspan" font-style="normal">+getSpotsNeeded()</tspan></tspan></text></g></g></g><g style="" class="divider"><path style="" fill="none" stroke-width="1.3" stroke="#999" d="M-90.9000015258789 -15.000001907348633 C-52.78978682937168 -15.000001907348633, -14.67957213286445 -15.000001907348633, 90.9000015258789 -15.000001907348633 M-90.9000015258789 -15.000001907348633 C-19.84008451107698 -15.000001907348633, 51.219832503724945 -15.000001907348633, 90.9000015258789 -15.000001907348633"></path></g><g style="" class="divider"><path style="" fill="none" stroke-width="1.3" stroke="#999" d="M-90.9000015258789 8.999998092651367 C-22.65101246747004 8.999998092651367, 45.59797659093883 8.999998092651367, 90.9000015258789 8.999998092651367 M-90.9000015258789 8.999998092651367 C-18.70704522128065 8.999998092651367, 53.4859110833176 8.999998092651367, 90.9000015258789 8.999998092651367"></path></g></g><g transform="translate(597.1574325561523, 1486.4000091552734)" id="classId-Bike-10410" class="node default"><g class="basic label-container"><path style="" fill="#eee" stroke-width="0" stroke="none" d="M-87.90937805175781 -57.400001525878906 L87.90937805175781 -57.400001525878906 L87.90937805175781 57.400001525878906 L-87.90937805175781 57.400001525878906"></path><path style="" fill="none" stroke-width="1.3" stroke="#999" d="M-87.90937805175781 -57.400001525878906 C-30.151877751053945 -57.400001525878906, 27.605622549649922 -57.400001525878906, 87.90937805175781 -57.400001525878906 M-87.90937805175781 -57.400001525878906 C-26.892561522909915 -57.400001525878906, 34.12425500593798 -57.400001525878906, 87.90937805175781 -57.400001525878906 M87.90937805175781 -57.400001525878906 C87.90937805175781 -27.407623186099688, 87.90937805175781 2.584755153679531, 87.90937805175781 57.400001525878906 M87.90937805175781 -57.400001525878906 C87.90937805175781 -22.180492795090203, 87.90937805175781 13.039015935698501, 87.90937805175781 57.400001525878906 M87.90937805175781 57.400001525878906 C47.052157853288875 57.400001525878906, 6.194937654819938 57.400001525878906, -87.90937805175781 57.400001525878906 M87.90937805175781 57.400001525878906 C48.92858460188464 57.400001525878906, 9.947791152011462 57.400001525878906, -87.90937805175781 57.400001525878906 M-87.90937805175781 57.400001525878906 C-87.90937805175781 13.539340690521712, -87.90937805175781 -30.321320144835482, -87.90937805175781 -57.400001525878906 M-87.90937805175781 57.400001525878906 C-87.90937805175781 31.557331193775777, -87.90937805175781 5.714660861672648, -87.90937805175781 -57.400001525878906"></path></g><g transform="translate(0, -37.400001525878906)" class="annotation-group text"></g><g transform="translate(-16.33125114440918, -37.400001525878906)" class="label-group text"><g transform="translate(0,-9.199999809265137)" style="font-weight: bolder" class="label"><g><rect style="stroke: none" class="background"></rect><text style="" y="-10.1"><tspan font-weight="" dy="1.1em" y="-0.1em" x="0" class="text-outer-tspan"><tspan font-weight="" class="text-inner-tspan" font-style="normal">Bike</tspan></tspan></text></g></g></g><g transform="translate(-75.90937805175781, 4.999998092651367)" class="members-group text"></g><g transform="translate(-75.90937805175781, 34.99999809265137)" class="methods-group text"><g transform="translate(0,-9.199999809265137)" style="" class="label"><g><rect style="stroke: none" class="background"></rect><text style="" y="-10.1"><tspan dy="1.1em" y="-0.1em" x="0" class="text-outer-tspan"><tspan font-weight="normal" class="text-inner-tspan" font-style="normal">+getSpotsNeeded()</tspan></tspan></text></g></g></g><g style="" class="divider"><path style="" fill="none" stroke-width="1.3" stroke="#999" d="M-87.90937805175781 -15.000001907348633 C-38.03973559165795 -15.000001907348633, 11.82990686844191 -15.000001907348633, 87.90937805175781 -15.000001907348633 M-87.90937805175781 -15.000001907348633 C-29.63337522486369 -15.000001907348633, 28.64262760203043 -15.000001907348633, 87.90937805175781 -15.000001907348633"></path></g><g style="" class="divider"><path style="" fill="none" stroke-width="1.3" stroke="#999" d="M-87.90937805175781 8.999998092651367 C-18.99739640705573 8.999998092651367, 49.91458523764635 8.999998092651367, 87.90937805175781 8.999998092651367 M-87.90937805175781 8.999998092651367 C-43.411866361229514 8.999998092651367, 1.085645329298785 8.999998092651367, 87.90937805175781 8.999998092651367"></path></g></g><g transform="translate(1638.3640899658203, 1251.2000045776367)" id="classId-ParkingSpot-10411" class="node default"><g class="basic label-container"><path style="" fill="#eee" stroke-width="0" stroke="none" d="M-138.736328125 -127.80000305175781 L138.736328125 -127.80000305175781 L138.736328125 127.80000305175781 L-138.736328125 127.80000305175781"></path><path style="" fill="none" stroke-width="1.3" stroke="#999" d="M-138.736328125 -127.80000305175781 C-32.42954572901765 -127.80000305175781, 73.8772366669647 -127.80000305175781, 138.736328125 -127.80000305175781 M-138.736328125 -127.80000305175781 C-64.0701934212053 -127.80000305175781, 10.595941282589393 -127.80000305175781, 138.736328125 -127.80000305175781 M138.736328125 -127.80000305175781 C138.736328125 -69.6311306650036, 138.736328125 -11.46225827824938, 138.736328125 127.80000305175781 M138.736328125 -127.80000305175781 C138.736328125 -39.424578157659155, 138.736328125 48.9508467364395, 138.736328125 127.80000305175781 M138.736328125 127.80000305175781 C58.699659587917054 127.80000305175781, -21.33700894916589 127.80000305175781, -138.736328125 127.80000305175781 M138.736328125 127.80000305175781 C35.09505340840384 127.80000305175781, -68.54622130819232 127.80000305175781, -138.736328125 127.80000305175781 M-138.736328125 127.80000305175781 C-138.736328125 49.912353710014756, -138.736328125 -27.9752956317283, -138.736328125 -127.80000305175781 M-138.736328125 127.80000305175781 C-138.736328125 44.566054212677486, -138.736328125 -38.66789462640284, -138.736328125 -127.80000305175781"></path></g><g transform="translate(0, -107.80000305175781)" class="annotation-group text"></g><g transform="translate(-43.98515701293945, -107.80000305175781)" class="label-group text"><g transform="translate(0,-9.199999809265137)" style="font-weight: bolder" class="label"><g><rect style="stroke: none" class="background"></rect><text style="" y="-10.1"><tspan font-weight="" dy="1.1em" y="-0.1em" x="0" class="text-outer-tspan"><tspan font-weight="" class="text-inner-tspan" font-style="normal">ParkingSpot</tspan></tspan></text></g></g></g><g transform="translate(-126.736328125, -65.40000343322754)" class="members-group text"><g transform="translate(0,-9.199999809265137)" style="" class="label"><g><rect style="stroke: none" class="background"></rect><text style="" y="-10.1"><tspan dy="1.1em" y="-0.1em" x="0" class="text-outer-tspan"><tspan font-weight="normal" class="text-inner-tspan" font-style="normal">-int</tspan><tspan font-weight="normal" class="text-inner-tspan" font-style="normal"> spotId</tspan></tspan></text></g></g><g transform="translate(0,12.199999809265137)" style="" class="label"><g><rect style="stroke: none" class="background"></rect><text style="" y="-10.1"><tspan dy="1.1em" y="-0.1em" x="0" class="text-outer-tspan"><tspan font-weight="normal" class="text-inner-tspan" font-style="normal">-int</tspan><tspan font-weight="normal" class="text-inner-tspan" font-style="normal"> floor</tspan></tspan></text></g></g><g transform="translate(0,33.59999942779541)" style="" class="label"><g><rect style="stroke: none" class="background"></rect><text style="" y="-10.1"><tspan dy="1.1em" y="-0.1em" x="0" class="text-outer-tspan"><tspan font-weight="normal" class="text-inner-tspan" font-style="normal">-boolean</tspan><tspan font-weight="normal" class="text-inner-tspan" font-style="normal"> isOccupied</tspan></tspan></text></g></g><g transform="translate(0,54.999999046325684)" style="" class="label"><g><rect style="stroke: none" class="background"></rect><text style="" y="-10.1"><tspan dy="1.1em" y="-0.1em" x="0" class="text-outer-tspan"><tspan font-weight="normal" class="text-inner-tspan" font-style="normal">-Vehicle</tspan><tspan font-weight="normal" class="text-inner-tspan" font-style="normal"> vehicle</tspan></tspan></text></g></g></g><g transform="translate(-126.736328125, 41.199995040893555)" class="methods-group text"><g transform="translate(0,-9.199999809265137)" style="" class="label"><g><rect style="stroke: none" class="background"></rect><text style="" y="-10.1"><tspan dy="1.1em" y="-0.1em" x="0" class="text-outer-tspan"><tspan font-weight="normal" class="text-inner-tspan" font-style="normal">+occupySpot(Vehicle</tspan><tspan font-weight="normal" class="text-inner-tspan" font-style="normal"> vehicle)</tspan></tspan></text></g></g><g transform="translate(0,12.199999809265137)" style="" class="label"><g><rect style="stroke: none" class="background"></rect><text style="" y="-10.1"><tspan dy="1.1em" y="-0.1em" x="0" class="text-outer-tspan"><tspan font-weight="normal" class="text-inner-tspan" font-style="normal">+vacateSpot()</tspan></tspan></text></g></g><g transform="translate(0,33.59999942779541)" style="" class="label"><g><rect style="stroke: none" class="background"></rect><text style="" y="-10.1"><tspan dy="1.1em" y="-0.1em" x="0" class="text-outer-tspan"><tspan font-weight="normal" class="text-inner-tspan" font-style="normal">+isOccupied()</tspan></tspan></text></g></g><g transform="translate(0,54.999999046325684)" style="" class="label"><g><rect style="stroke: none" class="background"></rect><text style="" y="-10.1"><tspan dy="1.1em" y="-0.1em" x="0" class="text-outer-tspan"><tspan font-weight="normal" class="text-inner-tspan" font-style="normal">+getVehicle()</tspan></tspan></text></g></g></g><g style="" class="divider"><path style="" fill="none" stroke-width="1.3" stroke="#999" d="M-138.736328125 -85.40000343322754 C-65.2422465583588 -85.40000343322754, 8.251835008282399 -85.40000343322754, 138.736328125 -85.40000343322754 M-138.736328125 -85.40000343322754 C-68.44767755151246 -85.40000343322754, 1.8409730219750884 -85.40000343322754, 138.736328125 -85.40000343322754"></path></g><g style="" class="divider"><path style="" fill="none" stroke-width="1.3" stroke="#999" d="M-138.736328125 21.199995040893555 C-64.17329270191122 21.199995040893555, 10.389742721177555 21.199995040893555, 138.736328125 21.199995040893555 M-138.736328125 21.199995040893555 C-44.629938190999425 21.199995040893555, 49.47645174300115 21.199995040893555, 138.736328125 21.199995040893555"></path></g></g><g transform="translate(2027.2785720825195, 1251.2000045776367)" id="classId-Floor-10412" class="node default"><g class="basic label-container"><path style="" fill="#eee" stroke-width="0" stroke="none" d="M-159.48477172851562 -85 L159.48477172851562 -85 L159.48477172851562 85 L-159.48477172851562 85"></path><path style="" fill="none" stroke-width="1.3" stroke="#999" d="M-159.48477172851562 -85 C-57.63913876622922 -85, 44.20649419605718 -85, 159.48477172851562 -85 M-159.48477172851562 -85 C-57.79310537854741 -85, 43.89856097142081 -85, 159.48477172851562 -85 M159.48477172851562 -85 C159.48477172851562 -31.68056506225666, 159.48477172851562 21.638869875486677, 159.48477172851562 85 M159.48477172851562 -85 C159.48477172851562 -48.475693673489026, 159.48477172851562 -11.951387346978052, 159.48477172851562 85 M159.48477172851562 85 C88.64894649211729 85, 17.813121255718954 85, -159.48477172851562 85 M159.48477172851562 85 C94.43429310389588 85, 29.38381447927614 85, -159.48477172851562 85 M-159.48477172851562 85 C-159.48477172851562 17.026865621033934, -159.48477172851562 -50.94626875793213, -159.48477172851562 -85 M-159.48477172851562 85 C-159.48477172851562 21.340930130177014, -159.48477172851562 -42.31813973964597, -159.48477172851562 -85"></path></g><g transform="translate(0, -65)" class="annotation-group text"></g><g transform="translate(-19.682031631469727, -65)" class="label-group text"><g transform="translate(0,-9.199999809265137)" style="font-weight: bolder" class="label"><g><rect style="stroke: none" class="background"></rect><text style="" y="-10.1"><tspan font-weight="" dy="1.1em" y="-0.1em" x="0" class="text-outer-tspan"><tspan font-weight="" class="text-inner-tspan" font-style="normal">Floor</tspan></tspan></text></g></g></g><g transform="translate(-147.48477172851562, -22.600000381469727)" class="members-group text"><g transform="translate(0,-9.199999809265137)" style="" class="label"><g><rect style="stroke: none" class="background"></rect><text style="" y="-10.1"><tspan dy="1.1em" y="-0.1em" x="0" class="text-outer-tspan"><tspan font-weight="normal" class="text-inner-tspan" font-style="normal">-int</tspan><tspan font-weight="normal" class="text-inner-tspan" font-style="normal"> floorNumber</tspan></tspan></text></g></g><g transform="translate(0,12.199999809265137)" style="" class="label"><g><rect style="stroke: none" class="background"></rect><text style="" y="-10.1"><tspan dy="1.1em" y="-0.1em" x="0" class="text-outer-tspan">-List&lt;ParkingSpot&gt; spots</tspan></text></g></g></g><g transform="translate(-147.48477172851562, 41.19999885559082)" class="methods-group text"><g transform="translate(0,-9.199999809265137)" style="" class="label"><g><rect style="stroke: none" class="background"></rect><text style="" y="-10.1"><tspan dy="1.1em" y="-0.1em" x="0" class="text-outer-tspan"><tspan font-weight="normal" class="text-inner-tspan" font-style="normal">+getAvailableSpots()</tspan></tspan></text></g></g><g transform="translate(0,12.199999809265137)" style="" class="label"><g><rect style="stroke: none" class="background"></rect><text style="" y="-10.1"><tspan dy="1.1em" y="-0.1em" x="0" class="text-outer-tspan"><tspan font-weight="normal" class="text-inner-tspan" font-style="normal">+findAvailableSpot(String</tspan><tspan font-weight="normal" class="text-inner-tspan" font-style="normal"> vehicleType)</tspan></tspan></text></g></g></g><g style="" class="divider"><path style="" fill="none" stroke-width="1.3" stroke="#999" d="M-159.48477172851562 -42.60000038146973 C-87.7655926961039 -42.60000038146973, -16.046413663692164 -42.60000038146973, 159.48477172851562 -42.60000038146973 M-159.48477172851562 -42.60000038146973 C-78.75263357330302 -42.60000038146973, 1.9795045819095947 -42.60000038146973, 159.48477172851562 -42.60000038146973"></path></g><g style="" class="divider"><path style="" fill="none" stroke-width="1.3" stroke="#999" d="M-159.48477172851562 21.19999885559082 C-48.1453688885134 21.19999885559082, 63.19403395148882 21.19999885559082, 159.48477172851562 21.19999885559082 M-159.48477172851562 21.19999885559082 C-82.18481360185946 21.19999885559082, -4.884855475203295 21.19999885559082, 159.48477172851562 21.19999885559082"></path></g></g><g transform="translate(832.6660308837891, 1486.4000091552734)" id="classId-DefaultParkingStrategy-10413" class="node default"><g class="basic label-container"><path style="" fill="#eee" stroke-width="0" stroke="none" d="M-97.5992202758789 -39.19999980926514 L97.5992202758789 -39.19999980926514 L97.5992202758789 39.19999980926514 L-97.5992202758789 39.19999980926514"></path><path style="" fill="none" stroke-width="1.3" stroke="#999" d="M-97.5992202758789 -39.19999980926514 C-47.903893582524496 -39.19999980926514, 1.7914331108299137 -39.19999980926514, 97.5992202758789 -39.19999980926514 M-97.5992202758789 -39.19999980926514 C-40.32837211085358 -39.19999980926514, 16.94247605417175 -39.19999980926514, 97.5992202758789 -39.19999980926514 M97.5992202758789 -39.19999980926514 C97.5992202758789 -12.20766732390019, 97.5992202758789 14.784665161464758, 97.5992202758789 39.19999980926514 M97.5992202758789 -39.19999980926514 C97.5992202758789 -22.39184094879224, 97.5992202758789 -5.5836820883193425, 97.5992202758789 39.19999980926514 M97.5992202758789 39.19999980926514 C26.92308203739448 39.19999980926514, -43.75305620108995 39.19999980926514, -97.5992202758789 39.19999980926514 M97.5992202758789 39.19999980926514 C24.87121843570044 39.19999980926514, -47.85678340447802 39.19999980926514, -97.5992202758789 39.19999980926514 M-97.5992202758789 39.19999980926514 C-97.5992202758789 14.627511825183529, -97.5992202758789 -9.94497615889808, -97.5992202758789 -39.19999980926514 M-97.5992202758789 39.19999980926514 C-97.5992202758789 19.86112392933826, -97.5992202758789 0.522248049411381, -97.5992202758789 -39.19999980926514"></path></g><g transform="translate(0, -19.199999809265137)" class="annotation-group text"></g><g transform="translate(-85.5992202758789, -19.199999809265137)" class="label-group text"><g transform="translate(0,-9.199999809265137)" style="font-weight: bolder" class="label"><g><rect style="stroke: none" class="background"></rect><text style="" y="-10.1"><tspan font-weight="" dy="1.1em" y="-0.1em" x="0" class="text-outer-tspan"><tspan font-weight="" class="text-inner-tspan" font-style="normal">DefaultParkingStrategy</tspan></tspan></text></g></g></g><g transform="translate(-85.5992202758789, 23.199999809265137)" class="members-group text"></g><g transform="translate(-85.5992202758789, 53.19999980926514)" class="methods-group text"></g><g style="" class="divider"><path style="" fill="none" stroke-width="1.3" stroke="#999" d="M-97.5992202758789 3.1999998092651367 C-41.08043194892374 3.1999998092651367, 15.438356378031429 3.1999998092651367, 97.5992202758789 3.1999998092651367 M-97.5992202758789 3.1999998092651367 C-22.81738917431383 3.1999998092651367, 51.964441927251244 3.1999998092651367, 97.5992202758789 3.1999998092651367"></path></g><g style="" class="divider"><path style="" fill="none" stroke-width="1.3" stroke="#999" d="M-97.5992202758789 21.199999809265137 C-42.642488780626756 21.199999809265137, 12.314242714625394 21.199999809265137, 97.5992202758789 21.199999809265137 M-97.5992202758789 21.199999809265137 C-35.748014500162235 21.199999809265137, 26.103191275554437 21.199999809265137, 97.5992202758789 21.199999809265137"></path></g></g><g transform="translate(1261.7211151123047, 1486.4000091552734)" id="classId-DefaultVehicleValidator-10414" class="node default"><g class="basic label-container"><path style="" fill="#eee" stroke-width="0" stroke="none" d="M-100.1156234741211 -39.19999980926514 L100.1156234741211 -39.19999980926514 L100.1156234741211 39.19999980926514 L-100.1156234741211 39.19999980926514"></path><path style="" fill="none" stroke-width="1.3" stroke="#999" d="M-100.1156234741211 -39.19999980926514 C-22.032352674728116 -39.19999980926514, 56.05091812466486 -39.19999980926514, 100.1156234741211 -39.19999980926514 M-100.1156234741211 -39.19999980926514 C-21.413097808923524 -39.19999980926514, 57.289427856274045 -39.19999980926514, 100.1156234741211 -39.19999980926514 M100.1156234741211 -39.19999980926514 C100.1156234741211 -12.713914760797309, 100.1156234741211 13.77217028767052, 100.1156234741211 39.19999980926514 M100.1156234741211 -39.19999980926514 C100.1156234741211 -10.559337808913387, 100.1156234741211 18.081324191438362, 100.1156234741211 39.19999980926514 M100.1156234741211 39.19999980926514 C59.03109851766249 39.19999980926514, 17.94657356120389 39.19999980926514, -100.1156234741211 39.19999980926514 M100.1156234741211 39.19999980926514 C55.148051462694205 39.19999980926514, 10.180479451267317 39.19999980926514, -100.1156234741211 39.19999980926514 M-100.1156234741211 39.19999980926514 C-100.1156234741211 21.290203317376257, -100.1156234741211 3.380406825487377, -100.1156234741211 -39.19999980926514 M-100.1156234741211 39.19999980926514 C-100.1156234741211 17.71994425822267, -100.1156234741211 -3.7601112928197935, -100.1156234741211 -39.19999980926514"></path></g><g transform="translate(0, -19.199999809265137)" class="annotation-group text"></g><g transform="translate(-88.1156234741211, -19.199999809265137)" class="label-group text"><g transform="translate(0,-9.199999809265137)" style="font-weight: bolder" class="label"><g><rect style="stroke: none" class="background"></rect><text style="" y="-10.1"><tspan font-weight="" dy="1.1em" y="-0.1em" x="0" class="text-outer-tspan"><tspan font-weight="" class="text-inner-tspan" font-style="normal">DefaultVehicleValidator</tspan></tspan></text></g></g></g><g transform="translate(-88.1156234741211, 23.199999809265137)" class="members-group text"></g><g transform="translate(-88.1156234741211, 53.19999980926514)" class="methods-group text"></g><g style="" class="divider"><path style="" fill="none" stroke-width="1.3" stroke="#999" d="M-100.1156234741211 3.1999998092651367 C-44.491713497228815 3.1999998092651367, 11.132196479663463 3.1999998092651367, 100.1156234741211 3.1999998092651367 M-100.1156234741211 3.1999998092651367 C-40.805933305440476 3.1999998092651367, 18.50375686324014 3.1999998092651367, 100.1156234741211 3.1999998092651367"></path></g><g style="" class="divider"><path style="" fill="none" stroke-width="1.3" stroke="#999" d="M-100.1156234741211 21.199999809265137 C-45.18401935265749 21.199999809265137, 9.74758476880612 21.199999809265137, 100.1156234741211 21.199999809265137 M-100.1156234741211 21.199999809265137 C-39.95980380044863 21.199999809265137, 20.19601587322383 21.199999809265137, 100.1156234741211 21.199999809265137"></path></g></g><g transform="translate(244.8371124267578, 924.1999893188477)" id="classId-VehicleFactory-10415" class="node default"><g class="basic label-container"><path style="" fill="#eee" stroke-width="0" stroke="none" d="M-236.8371124267578 -57.400001525878906 L236.8371124267578 -57.400001525878906 L236.8371124267578 57.400001525878906 L-236.8371124267578 57.400001525878906"></path><path style="" fill="none" stroke-width="1.3" stroke="#999" d="M-236.8371124267578 -57.400001525878906 C-70.99697814934996 -57.400001525878906, 94.8431561280579 -57.400001525878906, 236.8371124267578 -57.400001525878906 M-236.8371124267578 -57.400001525878906 C-107.04411519764707 -57.400001525878906, 22.748882031463665 -57.400001525878906, 236.8371124267578 -57.400001525878906 M236.8371124267578 -57.400001525878906 C236.8371124267578 -32.06305061161018, 236.8371124267578 -6.726099697341461, 236.8371124267578 57.400001525878906 M236.8371124267578 -57.400001525878906 C236.8371124267578 -30.33309479684818, 236.8371124267578 -3.2661880678174526, 236.8371124267578 57.400001525878906 M236.8371124267578 57.400001525878906 C57.4971074277002 57.400001525878906, -121.84289757135741 57.400001525878906, -236.8371124267578 57.400001525878906 M236.8371124267578 57.400001525878906 C122.76638362265494 57.400001525878906, 8.695654818552072 57.400001525878906, -236.8371124267578 57.400001525878906 M-236.8371124267578 57.400001525878906 C-236.8371124267578 26.98548639733285, -236.8371124267578 -3.429028731213208, -236.8371124267578 -57.400001525878906 M-236.8371124267578 57.400001525878906 C-236.8371124267578 16.710123820792653, -236.8371124267578 -23.9797538842936, -236.8371124267578 -57.400001525878906"></path></g><g transform="translate(0, -37.400001525878906)" class="annotation-group text"></g><g transform="translate(-55.87421798706055, -37.400001525878906)" class="label-group text"><g transform="translate(0,-9.199999809265137)" style="font-weight: bolder" class="label"><g><rect style="stroke: none" class="background"></rect><text style="" y="-10.1"><tspan font-weight="" dy="1.1em" y="-0.1em" x="0" class="text-outer-tspan"><tspan font-weight="" class="text-inner-tspan" font-style="normal">VehicleFactory</tspan></tspan></text></g></g></g><g transform="translate(-224.8371124267578, 4.999998092651367)" class="members-group text"></g><g transform="translate(-224.8371124267578, 34.99999809265137)" class="methods-group text"><g transform="translate(0,-9.199999809265137)" style="" class="label"><g><rect style="stroke: none" class="background"></rect><text style="" y="-10.1"><tspan dy="1.1em" y="-0.1em" x="0" class="text-outer-tspan"><tspan font-weight="normal" class="text-inner-tspan" font-style="normal">+createVehicle(String</tspan><tspan font-weight="normal" class="text-inner-tspan" font-style="normal"> licensePlate,</tspan><tspan font-weight="normal" class="text-inner-tspan" font-style="normal"> String</tspan><tspan font-weight="normal" class="text-inner-tspan" font-style="normal"> vehicleType)</tspan></tspan></text></g></g></g><g style="" class="divider"><path style="" fill="none" stroke-width="1.3" stroke="#999" d="M-236.8371124267578 -15.000001907348633 C-82.19819736348822 -15.000001907348633, 72.44071769978137 -15.000001907348633, 236.8371124267578 -15.000001907348633 M-236.8371124267578 -15.000001907348633 C-117.90069752727841 -15.000001907348633, 1.0357173722009918 -15.000001907348633, 236.8371124267578 -15.000001907348633"></path></g><g style="" class="divider"><path style="" fill="none" stroke-width="1.3" stroke="#999" d="M-236.8371124267578 8.999998092651367 C-108.90521192058199 8.999998092651367, 19.02668858559383 8.999998092651367, 236.8371124267578 8.999998092651367 M-236.8371124267578 8.999998092651367 C-116.11736977031352 8.999998092651367, 4.60237288613078 8.999998092651367, 236.8371124267578 8.999998092651367"></path></g></g><g transform="translate(1261.7211151123047, 924.1999893188477)" id="classId-ParkingLot-10416" class="node default"><g class="basic label-container"><path style="" fill="#eee" stroke-width="0" stroke="none" d="M-181.66603088378906 -149.20001220703125 L181.66603088378906 -149.20001220703125 L181.66603088378906 149.20001220703125 L-181.66603088378906 149.20001220703125"></path><path style="" fill="none" stroke-width="1.3" stroke="#999" d="M-181.66603088378906 -149.20001220703125 C-85.56483934833413 -149.20001220703125, 10.536352187120798 -149.20001220703125, 181.66603088378906 -149.20001220703125 M-181.66603088378906 -149.20001220703125 C-76.55249624934953 -149.20001220703125, 28.56103838509 -149.20001220703125, 181.66603088378906 -149.20001220703125 M181.66603088378906 -149.20001220703125 C181.66603088378906 -58.65885352289246, 181.66603088378906 31.882305161246336, 181.66603088378906 149.20001220703125 M181.66603088378906 -149.20001220703125 C181.66603088378906 -32.649735737011355, 181.66603088378906 83.90054073300854, 181.66603088378906 149.20001220703125 M181.66603088378906 149.20001220703125 C79.59332305771575 149.20001220703125, -22.479384768357562 149.20001220703125, -181.66603088378906 149.20001220703125 M181.66603088378906 149.20001220703125 C64.61179268409673 149.20001220703125, -52.44244551559561 149.20001220703125, -181.66603088378906 149.20001220703125 M-181.66603088378906 149.20001220703125 C-181.66603088378906 50.51444186939827, -181.66603088378906 -48.17112846823471, -181.66603088378906 -149.20001220703125 M-181.66603088378906 149.20001220703125 C-181.66603088378906 70.0694589847811, -181.66603088378906 -9.061094237469064, -181.66603088378906 -149.20001220703125"></path></g><g transform="translate(0, -129.20001220703125)" class="annotation-group text"></g><g transform="translate(-39.65703201293945, -129.20001220703125)" class="label-group text"><g transform="translate(0,-9.199999809265137)" style="font-weight: bolder" class="label"><g><rect style="stroke: none" class="background"></rect><text style="" y="-10.1"><tspan font-weight="" dy="1.1em" y="-0.1em" x="0" class="text-outer-tspan"><tspan font-weight="" class="text-inner-tspan" font-style="normal">ParkingLot</tspan></tspan></text></g></g></g><g transform="translate(-169.66603088378906, -86.80001258850098)" class="members-group text"><g transform="translate(0,-9.199999809265137)" style="" class="label"><g><rect style="stroke: none" class="background"></rect><text style="" y="-10.1"><tspan dy="1.1em" y="-0.1em" x="0" class="text-outer-tspan">-List&lt;Floor&gt; floors</tspan></text></g></g><g transform="translate(0,12.199999809265137)" style="" class="label"><g><rect style="stroke: none" class="background"></rect><text style="" y="-10.1"><tspan dy="1.1em" y="-0.1em" x="0" class="text-outer-tspan">-Map&lt;String, ParkingSpot&gt; parkedVehicles</tspan></text></g></g><g transform="translate(0,33.59999942779541)" style="" class="label"><g><rect style="stroke: none" class="background"></rect><text style="" y="-10.1"><tspan dy="1.1em" y="-0.1em" x="0" class="text-outer-tspan"><tspan font-weight="normal" class="text-inner-tspan" font-style="normal">-ParkingStrategy</tspan><tspan font-weight="normal" class="text-inner-tspan" font-style="normal"> parkingStrategy</tspan></tspan></text></g></g><g transform="translate(0,54.999999046325684)" style="" class="label"><g><rect style="stroke: none" class="background"></rect><text style="" y="-10.1"><tspan dy="1.1em" y="-0.1em" x="0" class="text-outer-tspan"><tspan font-weight="normal" class="text-inner-tspan" font-style="normal">-VehicleValidator</tspan><tspan font-weight="normal" class="text-inner-tspan" font-style="normal"> vehicleValidator</tspan></tspan></text></g></g><g transform="translate(0,76.39999866485596)" style="" class="label"><g><rect style="stroke: none" class="background"></rect><text style="" y="-10.1"><tspan dy="1.1em" y="-0.1em" x="0" class="text-outer-tspan"><tspan font-weight="normal" class="text-inner-tspan" font-style="normal">-Lock</tspan><tspan font-weight="normal" class="text-inner-tspan" font-style="normal"> lock</tspan></tspan></text></g></g></g><g transform="translate(-169.66603088378906, 41.199995040893555)" class="methods-group text"><g transform="translate(0,-9.199999809265137)" style="" class="label"><g><rect style="stroke: none" class="background"></rect><text style="" y="-10.1"><tspan dy="1.1em" y="-0.1em" x="0" class="text-outer-tspan"><tspan font-weight="normal" class="text-inner-tspan" font-style="normal">+parkVehicle(Vehicle</tspan><tspan font-weight="normal" class="text-inner-tspan" font-style="normal"> vehicle)</tspan></tspan></text></g></g><g transform="translate(0,12.199999809265137)" style="" class="label"><g><rect style="stroke: none" class="background"></rect><text style="" y="-10.1"><tspan dy="1.1em" y="-0.1em" x="0" class="text-outer-tspan"><tspan font-weight="normal" class="text-inner-tspan" font-style="normal">+leaveVehicle(String</tspan><tspan font-weight="normal" class="text-inner-tspan" font-style="normal"> licensePlate)</tspan></tspan></text></g></g><g transform="translate(0,33.59999942779541)" style="" class="label"><g><rect style="stroke: none" class="background"></rect><text style="" y="-10.1"><tspan dy="1.1em" y="-0.1em" x="0" class="text-outer-tspan"><tspan font-weight="normal" class="text-inner-tspan" font-style="normal">+getAvailableSpots(int</tspan><tspan font-weight="normal" class="text-inner-tspan" font-style="normal"> floorNumber)</tspan></tspan></text></g></g><g transform="translate(0,54.999999046325684)" style="" class="label"><g><rect style="stroke: none" class="background"></rect><text style="" y="-10.1"><tspan dy="1.1em" y="-0.1em" x="0" class="text-outer-tspan"><tspan font-weight="normal" class="text-inner-tspan" font-style="normal">+isFull()</tspan></tspan></text></g></g><g transform="translate(0,76.39999866485596)" style="" class="label"><g><rect style="stroke: none" class="background"></rect><text style="" y="-10.1"><tspan dy="1.1em" y="-0.1em" x="0" class="text-outer-tspan"><tspan font-weight="normal" class="text-inner-tspan" font-style="normal">+getVehicleLocation(String</tspan><tspan font-weight="normal" class="text-inner-tspan" font-style="normal"> licensePlate)</tspan></tspan></text></g></g></g><g style="" class="divider"><path style="" fill="none" stroke-width="1.3" stroke="#999" d="M-181.66603088378906 -106.80001258850098 C-67.49433021910075 -106.80001258850098, 46.67737044558757 -106.80001258850098, 181.66603088378906 -106.80001258850098 M-181.66603088378906 -106.80001258850098 C-75.65188823956558 -106.80001258850098, 30.362254404657904 -106.80001258850098, 181.66603088378906 -106.80001258850098"></path></g><g style="" class="divider"><path style="" fill="none" stroke-width="1.3" stroke="#999" d="M-181.66603088378906 21.199995040893555 C-62.79324092415399 21.199995040893555, 56.07954903548108 21.199995040893555, 181.66603088378906 21.199995040893555 M-181.66603088378906 21.199995040893555 C-98.03804016071184 21.199995040893555, -14.410049437634626 21.199995040893555, 181.66603088378906 21.199995040893555"></path></g></g><g transform="translate(815.0345840454102, 296.2999954223633)" id="classId-ParkingLotUI-10417" class="node default"><g class="basic label-container"><path style="" fill="#eee" stroke-width="0" stroke="none" d="M-155.5046844482422 -159.89999389648438 L155.5046844482422 -159.89999389648438 L155.5046844482422 159.89999389648438 L-155.5046844482422 159.89999389648438"></path><path style="" fill="none" stroke-width="1.3" stroke="#999" d="M-155.5046844482422 -159.89999389648438 C-37.14418686901094 -159.89999389648438, 81.21631071022031 -159.89999389648438, 155.5046844482422 -159.89999389648438 M-155.5046844482422 -159.89999389648438 C-79.76333205316247 -159.89999389648438, -4.021979658082756 -159.89999389648438, 155.5046844482422 -159.89999389648438 M155.5046844482422 -159.89999389648438 C155.5046844482422 -42.173092494029675, 155.5046844482422 75.55380890842503, 155.5046844482422 159.89999389648438 M155.5046844482422 -159.89999389648438 C155.5046844482422 -53.773949737058246, 155.5046844482422 52.352094422367884, 155.5046844482422 159.89999389648438 M155.5046844482422 159.89999389648438 C91.24694468059495 159.89999389648438, 26.989204912947713 159.89999389648438, -155.5046844482422 159.89999389648438 M155.5046844482422 159.89999389648438 C77.8845786931081 159.89999389648438, 0.2644729379740056 159.89999389648438, -155.5046844482422 159.89999389648438 M-155.5046844482422 159.89999389648438 C-155.5046844482422 35.48618122214499, -155.5046844482422 -88.92763145219439, -155.5046844482422 -159.89999389648438 M-155.5046844482422 159.89999389648438 C-155.5046844482422 58.52134819069528, -155.5046844482422 -42.85729751509382, -155.5046844482422 -159.89999389648438"></path></g><g transform="translate(0, -139.89999389648438)" class="annotation-group text"></g><g transform="translate(-47.28125, -139.89999389648438)" class="label-group text"><g transform="translate(0,-9.199999809265137)" style="font-weight: bolder" class="label"><g><rect style="stroke: none" class="background"></rect><text style="" y="-10.1"><tspan font-weight="" dy="1.1em" y="-0.1em" x="0" class="text-outer-tspan"><tspan font-weight="" class="text-inner-tspan" font-style="normal">ParkingLotUI</tspan></tspan></text></g></g></g><g transform="translate(-143.5046844482422, -97.4999942779541)" class="members-group text"><g transform="translate(0,-9.199999809265137)" style="" class="label"><g><rect style="stroke: none" class="background"></rect><text style="" y="-10.1"><tspan dy="1.1em" y="-0.1em" x="0" class="text-outer-tspan"><tspan font-weight="normal" class="text-inner-tspan" font-style="normal">-ParkingLotOperations</tspan><tspan font-weight="normal" class="text-inner-tspan" font-style="normal"> parkingLot</tspan></tspan></text></g></g><g transform="translate(0,12.199999809265137)" style="" class="label"><g><rect style="stroke: none" class="background"></rect><text style="" y="-10.1"><tspan dy="1.1em" y="-0.1em" x="0" class="text-outer-tspan"><tspan font-weight="normal" class="text-inner-tspan" font-style="normal">-Scanner</tspan><tspan font-weight="normal" class="text-inner-tspan" font-style="normal"> scanner</tspan></tspan></text></g></g></g><g transform="translate(-143.5046844482422, -33.699995040893555)" class="methods-group text"><g transform="translate(0,-9.199999809265137)" style="" class="label"><g><rect style="stroke: none" class="background"></rect><text style="" y="-10.1"><tspan dy="1.1em" y="-0.1em" x="0" class="text-outer-tspan"><tspan font-weight="normal" class="text-inner-tspan" font-style="normal">+start()</tspan></tspan></text></g></g><g transform="translate(0,12.199999809265137)" style="" class="label"><g><rect style="stroke: none" class="background"></rect><text style="" y="-10.1"><tspan dy="1.1em" y="-0.1em" x="0" class="text-outer-tspan"><tspan font-weight="normal" class="text-inner-tspan" font-style="normal">+displayMenu()</tspan></tspan></text></g></g><g transform="translate(0,33.59999942779541)" style="" class="label"><g><rect style="stroke: none" class="background"></rect><text style="" y="-10.1"><tspan dy="1.1em" y="-0.1em" x="0" class="text-outer-tspan"><tspan font-weight="normal" class="text-inner-tspan" font-style="normal">-getValidChoice()</tspan></tspan></text></g></g><g transform="translate(0,54.999999046325684)" style="" class="label"><g><rect style="stroke: none" class="background"></rect><text style="" y="-10.1"><tspan dy="1.1em" y="-0.1em" x="0" class="text-outer-tspan"><tspan font-weight="normal" class="text-inner-tspan" font-style="normal">-processChoice()</tspan></tspan></text></g></g><g transform="translate(0,76.39999866485596)" style="" class="label"><g><rect style="stroke: none" class="background"></rect><text style="" y="-10.1"><tspan dy="1.1em" y="-0.1em" x="0" class="text-outer-tspan"><tspan font-weight="normal" class="text-inner-tspan" font-style="normal">-handleParkVehicle()</tspan></tspan></text></g></g><g transform="translate(0,97.79999828338623)" style="" class="label"><g><rect style="stroke: none" class="background"></rect><text style="" y="-10.1"><tspan dy="1.1em" y="-0.1em" x="0" class="text-outer-tspan"><tspan font-weight="normal" class="text-inner-tspan" font-style="normal">-handleLeaveVehicle()</tspan></tspan></text></g></g><g transform="translate(0,119.1999979019165)" style="" class="label"><g><rect style="stroke: none" class="background"></rect><text style="" y="-10.1"><tspan dy="1.1em" y="-0.1em" x="0" class="text-outer-tspan"><tspan font-weight="normal" class="text-inner-tspan" font-style="normal">-handleCheckAvaibleSpots()</tspan></tspan></text></g></g><g transform="translate(0,140.59999752044678)" style="" class="label"><g><rect style="stroke: none" class="background"></rect><text style="" y="-10.1"><tspan dy="1.1em" y="-0.1em" x="0" class="text-outer-tspan"><tspan font-weight="normal" class="text-inner-tspan" font-style="normal">-handleCheckIfFull()</tspan></tspan></text></g></g><g transform="translate(0,161.99999713897705)" style="" class="label"><g><rect style="stroke: none" class="background"></rect><text style="" y="-10.1"><tspan dy="1.1em" y="-0.1em" x="0" class="text-outer-tspan"><tspan font-weight="normal" class="text-inner-tspan" font-style="normal">-handleFindVehicle()</tspan></tspan></text></g></g></g><g style="" class="divider"><path style="" fill="none" stroke-width="1.3" stroke="#999" d="M-155.5046844482422 -117.4999942779541 C-53.45896715146337 -117.4999942779541, 48.58675014531545 -117.4999942779541, 155.5046844482422 -117.4999942779541 M-155.5046844482422 -117.4999942779541 C-33.14145123947016 -117.4999942779541, 89.22178196930187 -117.4999942779541, 155.5046844482422 -117.4999942779541"></path></g><g style="" class="divider"><path style="" fill="none" stroke-width="1.3" stroke="#999" d="M-155.5046844482422 -53.699995040893555 C-62.89422876007784 -53.699995040893555, 29.716226928086513 -53.699995040893555, 155.5046844482422 -53.699995040893555 M-155.5046844482422 -53.699995040893555 C-49.900465230108736 -53.699995040893555, 55.703753988024715 -53.699995040893555, 155.5046844482422 -53.699995040893555"></path></g></g><g transform="translate(815.0345840454102, 47.20000076293945)" id="classId-Main-10418" class="node default"><g class="basic label-container"><path style="" fill="#eee" stroke-width="0" stroke="none" d="M-29.73750114440918 -39.19999980926514 L29.73750114440918 -39.19999980926514 L29.73750114440918 39.19999980926514 L-29.73750114440918 39.19999980926514"></path><path style="" fill="none" stroke-width="1.3" stroke="#999" d="M-29.73750114440918 -39.19999980926514 C-12.763846072128018 -39.19999980926514, 4.209809000153143 -39.19999980926514, 29.73750114440918 -39.19999980926514 M-29.73750114440918 -39.19999980926514 C-10.366335647146581 -39.19999980926514, 9.004829850116018 -39.19999980926514, 29.73750114440918 -39.19999980926514 M29.73750114440918 -39.19999980926514 C29.73750114440918 -21.120502976731167, 29.73750114440918 -3.0410061441971976, 29.73750114440918 39.19999980926514 M29.73750114440918 -39.19999980926514 C29.73750114440918 -20.68441444775975, 29.73750114440918 -2.1688290862543624, 29.73750114440918 39.19999980926514 M29.73750114440918 39.19999980926514 C7.543319463628787 39.19999980926514, -14.650862217151605 39.19999980926514, -29.73750114440918 39.19999980926514 M29.73750114440918 39.19999980926514 C5.978758810104448 39.19999980926514, -17.779983524200283 39.19999980926514, -29.73750114440918 39.19999980926514 M-29.73750114440918 39.19999980926514 C-29.73750114440918 13.201364008663624, -29.73750114440918 -12.797271791937888, -29.73750114440918 -39.19999980926514 M-29.73750114440918 39.19999980926514 C-29.73750114440918 9.57374694619024, -29.73750114440918 -20.052505916884655, -29.73750114440918 -39.19999980926514"></path></g><g transform="translate(0, -19.199999809265137)" class="annotation-group text"></g><g transform="translate(-17.73750114440918, -19.199999809265137)" class="label-group text"><g transform="translate(0,-9.199999809265137)" style="font-weight: bolder" class="label"><g><rect style="stroke: none" class="background"></rect><text style="" y="-10.1"><tspan font-weight="" dy="1.1em" y="-0.1em" x="0" class="text-outer-tspan"><tspan font-weight="" class="text-inner-tspan" font-style="normal">Main</tspan></tspan></text></g></g></g><g transform="translate(-17.73750114440918, 23.199999809265137)" class="members-group text"></g><g transform="translate(-17.73750114440918, 53.19999980926514)" class="methods-group text"></g><g style="" class="divider"><path style="" fill="none" stroke-width="1.3" stroke="#999" d="M-29.73750114440918 3.1999998092651367 C-10.467790850138524 3.1999998092651367, 8.801919444132132 3.1999998092651367, 29.73750114440918 3.1999998092651367 M-29.73750114440918 3.1999998092651367 C-17.289155442683423 3.1999998092651367, -4.840809740957667 3.1999998092651367, 29.73750114440918 3.1999998092651367"></path></g><g style="" class="divider"><path style="" fill="none" stroke-width="1.3" stroke="#999" d="M-29.73750114440918 21.199999809265137 C-14.875719219408612 21.199999809265137, -0.01393729440804492 21.199999809265137, 29.73750114440918 21.199999809265137 M-29.73750114440918 21.199999809265137 C-11.86101723029752 21.199999809265137, 6.0154666838141395 21.199999809265137, 29.73750114440918 21.199999809265137"></path></g></g></g></g></g></svg>